<?xml version="1.0"  encoding="UTF-8" standalone="no"?>
<svg version="1.1" xmlns="http://www.w3.org/2000/svg" xmlns:xlink="http://www.w3.org/1999/xlink" width="190.0000" height="30.0000">
<g transform="translate(-0.0000, -0.0000)">
<path d="M 0.0000,0.0000 L 0.0000,0.0000 L 0.0000,30.8362 L 190.8338,30.8362 L 190.8338,0.0000 Z " fill="none" stroke="none" />
<defs><clipPath id="clip-1804289383"><path d="M 0.0000,0.0000 L 0.0000,0.0000 L 0.0000,30.8362 L 190.8338,30.8362 L 190.8338,0.0000 Z" /></clipPath></defs>
<path d="M 0.0000,0.0000 L 0.0000,0.0000 L 0.0000,30.8362 L 190.8338,30.8362 L 190.8338,0.0000 Z " fill="none" stroke="none" />
<defs><clipPath id="clip-846930886"><path d="M 0.0000,0.0000 L 0.0000,0.0000 L 0.0000,30.8362 L 190.8338,30.8362 L 190.8338,0.0000 Z" /></clipPath></defs>
<path d="M 12.1942,23.5192 L 12.1942,23.5192 C 12.1942,24.8780 11.1519,25.9233 9.7970,25.9233 C 8.5464,25.9233 7.5041,24.8780 7.5041,23.5192 C 7.5041,22.2648 8.5464,21.1150 9.7970,21.1150 L 12.1942,21.1150 L 12.1942,23.5192 Z M 3.7521,23.5192 L 3.7521,23.5192 C 3.7521,27.0732 6.5661,30.0000 10.1097,30.0000 C 13.6533,30.0000 16.4674,27.0732 16.4674,23.5192 L 16.4674,17.1429 L 10.1097,17.1429 C 6.5661,17.1429 3.7521,19.9652 3.7521,23.5192 Z M 11.0477,10.3484 L 11.0477,10.3484 L 8.2337,10.3484 C 6.6703,10.3484 5.4196,9.0941 5.4196,7.5261 C 5.4196,5.9582 6.6703,4.7038 8.2337,4.7038 C 9.7970,4.7038 11.0477,5.9582 11.0477,7.5261 L 11.0477,10.3484 Z M 8.2337,-0.6272 L 8.2337,-0.6272 C 3.6478,-0.6272 0.0000,2.9268 0.0000,7.5261 C 0.0000,12.1254 3.6478,15.8885 8.2337,15.8885 L 16.4674,15.8885 L 16.4674,7.5261 C 16.4674,2.9268 12.8195,-0.6272 8.2337,-0.6272 Z Z "  fill="#FFFFFF" stroke="none" />
<path d="M 24.3884,25.9233 L 24.3884,25.9233 C 23.1377,25.9233 21.9912,24.8780 21.9912,23.5192 L 21.9912,21.1150 L 24.3884,21.1150 C 25.7433,21.1150 26.7855,22.2648 26.7855,23.5192 C 26.7855,24.8780 25.7433,25.9233 24.3884,25.9233 Z M 24.2841,17.1429 L 24.2841,17.1429 L 17.8223,17.1429 L 17.8223,23.5192 C 17.8223,27.0732 20.7405,30.0000 24.2841,30.0000 C 27.8278,30.0000 30.6418,27.0732 30.6418,23.5192 C 30.6418,19.9652 27.8278,17.1429 24.2841,17.1429 Z M 26.0560,10.3484 L 26.0560,10.3484 L 23.2419,10.3484 L 23.2419,7.5261 C 23.2419,5.9582 24.4926,4.7038 26.0560,4.7038 C 27.6193,4.7038 28.8700,5.9582 28.8700,7.5261 C 28.8700,9.0941 27.6193,10.3484 26.0560,10.3484 Z M 26.1602,-0.6272 L 26.1602,-0.6272 C 21.5743,-0.6272 17.8223,2.9268 17.8223,7.5261 L 17.8223,15.8885 L 26.1602,15.8885 C 30.7460,15.8885 34.3939,12.1254 34.3939,7.5261 C 34.3939,2.9268 30.7460,-0.6272 26.1602,-0.6272 Z Z "  fill="#FFFFFF" stroke="none" />
<path d="M 170.8228,14.1115 L 170.8228,14.1115 L 176.3467,14.1115 L 178.6396,17.8746 C 178.8481,18.2927 178.9523,18.6063 178.9523,19.2334 C 179.0565,18.6063 179.1607,18.1882 179.3692,17.8746 L 181.5579,14.1115 L 186.4564,14.1115 L 180.9325,22.4739 L 180.9325,29.3728 L 176.3467,29.3728 L 176.3467,22.3693 L 170.8228,14.1115 Z M 160.0878,29.3728 L 160.0878,29.3728 L 160.0878,14.1115 L 164.6736,14.1115 L 164.6736,26.1324 L 170.6144,26.1324 L 170.6144,29.3728 L 160.0878,29.3728 Z M 145.3922,29.3728 L 145.3922,29.3728 L 145.3922,14.1115 L 155.2935,14.1115 L 155.2935,17.2474 L 149.9781,17.2474 L 149.9781,20.0697 L 155.1892,20.0697 L 155.1892,23.2056 L 149.9781,23.2056 L 149.9781,29.3728 L 145.3922,29.3728 Z M 131.6347,16.9338 L 131.6347,16.9338 L 131.6347,20.4878 L 132.7811,20.4878 C 133.9276,20.4878 134.6572,19.8606 134.6572,18.7108 C 134.6572,17.5610 133.9276,16.9338 132.6769,16.9338 L 131.6347,16.9338 Z M 127.1530,29.3728 L 127.1530,29.3728 L 127.1530,14.1115 L 134.4487,14.1115 C 137.2628,14.1115 139.2430,15.8885 139.2430,18.5017 C 139.2430,20.1742 138.5134,21.3240 137.0543,21.9512 C 137.5754,22.2648 137.7839,22.4739 138.2008,22.9965 C 138.4092,23.3101 138.6177,23.6237 138.8261,24.0418 C 139.1388,24.5645 139.6599,25.6098 140.2852,27.0732 L 141.3275,29.3728 L 136.6374,29.3728 L 136.1163,28.0139 C 135.4909,26.5505 134.6572,24.8780 134.1360,24.1463 C 133.7191,23.5192 133.0938,23.2056 132.2600,23.2056 L 131.7389,23.2056 L 131.7389,29.3728 L 127.1530,29.3728 Z M 111.7279,29.3728 L 111.7279,29.3728 L 111.7279,14.1115 L 122.0461,14.1115 L 122.0461,17.2474 L 116.3138,17.2474 L 116.3138,19.9652 L 121.7334,19.9652 L 121.7334,23.1010 L 116.3138,23.1010 L 116.3138,26.2369 L 122.1503,26.2369 L 122.1503,29.3728 L 111.7279,29.3728 Z M 97.5535,17.3519 L 97.5535,17.3519 L 97.5535,26.0279 L 99.0126,26.0279 C 101.3055,26.0279 102.8689,24.3554 102.8689,21.7422 C 102.8689,19.0244 101.3055,17.3519 98.8042,17.3519 L 97.5535,17.3519 Z M 92.9676,29.3728 L 92.9676,29.3728 L 92.9676,14.1115 L 99.7422,14.1115 C 104.1196,14.1115 107.4547,17.4564 107.4547,21.9512 C 107.4547,26.3415 104.3280,29.3728 99.9506,29.3728 L 92.9676,29.3728 Z M 78.4805,17.3519 L 78.4805,17.3519 L 78.4805,26.0279 L 79.9397,26.0279 C 82.3368,26.0279 83.7959,24.3554 83.7959,21.7422 C 83.7959,19.0244 82.3368,17.3519 79.7312,17.3519 L 78.4805,17.3519 Z M 73.8947,29.3728 L 73.8947,29.3728 L 73.8947,14.1115 L 80.7735,14.1115 C 85.0466,14.1115 88.3818,17.4564 88.3818,21.9512 C 88.3818,26.3415 85.2551,29.3728 80.8777,29.3728 L 73.8947,29.3728 Z M 68.9962,14.1115 L 68.9962,14.1115 L 68.9962,22.8920 C 68.9962,24.3554 68.7877,25.5052 68.2666,26.4460 C 67.1201,28.5366 64.6188,29.6864 61.3878,29.6864 C 58.2611,29.6864 55.8640,28.5366 54.6133,26.4460 C 54.0922,25.6098 53.8837,24.3554 53.8837,22.8920 L 53.8837,14.1115 L 58.3653,14.1115 L 58.3653,22.7875 C 58.3653,24.7735 59.6160,25.9233 61.3878,25.9233 C 63.2639,25.9233 64.5145,24.7735 64.5145,22.7875 L 64.5145,14.1115 L 68.9962,14.1115 Z M 41.4811,22.8920 L 41.4811,22.8920 L 41.4811,26.7596 L 43.3571,26.7596 C 44.7120,26.7596 45.4416,26.0279 45.4416,24.8780 C 45.4416,23.6237 44.7120,22.8920 43.1487,22.8920 L 41.4811,22.8920 Z M 41.4811,16.8293 L 41.4811,16.8293 L 41.4811,20.2787 L 42.7318,20.2787 C 43.8782,20.2787 44.6078,19.5470 44.6078,18.5017 C 44.6078,17.4564 43.9824,16.8293 42.8360,16.8293 L 41.4811,16.8293 Z M 36.8952,29.3728 L 36.8952,29.3728 L 36.8952,14.1115 L 44.2951,14.1115 C 47.0049,14.1115 48.8810,15.5749 48.8810,17.9791 C 48.8810,19.4425 48.1514,20.3833 46.9007,21.0105 C 48.9852,21.7422 50.0274,22.9965 50.0274,25.0871 C 50.0274,27.0732 48.7767,28.7456 46.9007,29.1638 C 46.3796,29.3728 45.6500,29.3728 44.8162,29.3728 L 36.8952,29.3728 Z Z "  fill="#FFFFFF" stroke="none" />
<path d="M 188.7493,15.2613 L 188.7493,15.2613 L 188.9578,15.2613 C 189.0620,15.2613 189.1662,15.1568 189.1662,15.0523 C 189.1662,14.9477 189.0620,14.8432 188.8535,14.8432 L 188.7493,14.8432 L 188.7493,15.2613 Z M 188.9578,14.6341 L 188.9578,14.6341 C 189.3747,14.6341 189.4789,14.7387 189.4789,15.0523 C 189.4789,15.1568 189.3747,15.3659 189.2704,15.3659 L 189.4789,15.9930 L 189.1662,15.9930 L 188.9578,15.4704 L 188.7493,15.4704 L 188.7493,15.9930 L 188.4366,15.9930 L 188.4366,14.6341 L 188.9578,14.6341 Z M 188.2282,14.6341 L 188.2282,14.6341 C 188.0197,14.8432 187.9155,15.0523 187.9155,15.3659 C 187.9155,15.5749 188.0197,15.7840 188.2282,15.9930 C 188.4366,16.2021 188.6451,16.3066 188.9578,16.3066 C 189.1662,16.3066 189.4789,16.2021 189.5831,15.9930 C 189.7916,15.8885 189.8958,15.5749 189.8958,15.3659 C 189.8958,15.0523 189.7916,14.8432 189.5831,14.6341 C 189.4789,14.4251 189.1662,14.3206 188.9578,14.3206 C 188.6451,14.3206 188.4366,14.4251 188.2282,14.6341 Z M 189.7916,14.5296 L 189.7916,14.5296 C 190.0000,14.7387 190.1042,15.0523 190.1042,15.3659 C 190.1042,15.6794 190.0000,15.9930 189.7916,16.2021 C 189.4789,16.4111 189.2704,16.5157 188.9578,16.5157 C 188.6451,16.5157 188.3324,16.4111 188.1240,16.2021 C 187.9155,15.8885 187.7071,15.6794 187.7071,15.3659 C 187.7071,15.1568 187.8113,14.9477 187.9155,14.7387 C 188.1240,14.3206 188.5409,14.1115 188.9578,14.1115 C 189.2704,14.1115 189.5831,14.3206 189.7916,14.5296 Z Z "  fill="#FFFFFF" stroke="none" />
<path d="M 0.0000,0.0000 L 0.0000,0.0000 L 0.0000,30.8362 L 190.8338,30.8362 L 190.8338,0.0000 Z " fill="none" stroke="none" />
<defs><clipPath id="clip-1681692777"><path d="M 0.0000,0.0000 L 0.0000,0.0000 L 0.0000,30.8362 L 190.8338,30.8362 L 190.8338,0.0000 Z" /></clipPath></defs>
</g>
</svg>
