<?xml version="1.0"  encoding="UTF-8" standalone="no"?>
<svg version="1.1" xmlns="http://www.w3.org/2000/svg" xmlns:xlink="http://www.w3.org/1999/xlink" width="34.0000" height="30.0000">
<g transform="translate(-0.0000, -0.0000)">
<path d="M 0.0000,0.0000 L 0.0000,0.0000 L 0.0000,30.8362 L 34.8344,30.8362 L 34.8344,0.0000 Z " fill="none" stroke="none" />
<defs><clipPath id="clip-1804289383"><path d="M 0.0000,0.0000 L 0.0000,0.0000 L 0.0000,30.8362 L 34.8344,30.8362 L 34.8344,0.0000 Z" /></clipPath></defs>
<path d="M 0.0000,0.0000 L 0.0000,0.0000 L 0.0000,30.8362 L 34.8344,30.8362 L 34.8344,0.0000 Z " fill="none" stroke="none" />
<defs><clipPath id="clip-846930886"><path d="M 0.0000,0.0000 L 0.0000,0.0000 L 0.0000,30.8362 L 34.8344,30.8362 L 34.8344,0.0000 Z" /></clipPath></defs>
<path d="M 12.2025,23.5192 L 12.2025,23.5192 C 12.2025,24.8780 11.1595,25.9233 9.8037,25.9233 C 8.5521,25.9233 7.5092,24.8780 7.5092,23.5192 C 7.5092,22.2648 8.5521,21.1150 9.8037,21.1150 L 12.2025,21.1150 L 12.2025,23.5192 Z M 3.7546,23.5192 L 3.7546,23.5192 C 3.7546,27.0732 6.5706,30.0000 10.1166,30.0000 C 13.6626,30.0000 16.4785,27.0732 16.4785,23.5192 L 16.4785,17.1429 L 10.1166,17.1429 C 6.5706,17.1429 3.7546,19.9652 3.7546,23.5192 Z M 11.0552,10.3484 L 11.0552,10.3484 L 8.2393,10.3484 C 6.6748,10.3484 5.4233,9.0941 5.4233,7.5261 C 5.4233,5.9582 6.6748,4.7038 8.2393,4.7038 C 9.8037,4.7038 11.0552,5.9582 11.0552,7.5261 L 11.0552,10.3484 Z M 8.2393,-0.6272 L 8.2393,-0.6272 C 3.6503,-0.6272 0.0000,2.9268 0.0000,7.5261 C 0.0000,12.1254 3.6503,15.8885 8.2393,15.8885 L 16.4785,15.8885 L 16.4785,7.5261 C 16.4785,2.9268 12.8282,-0.6272 8.2393,-0.6272 Z Z "  fill="#14663C" stroke="none" />
<path d="M 24.4049,25.9233 L 24.4049,25.9233 C 23.1534,25.9233 22.0061,24.8780 22.0061,23.5192 L 22.0061,21.1150 L 24.4049,21.1150 C 25.7607,21.1150 26.8037,22.2648 26.8037,23.5192 C 26.8037,24.8780 25.7607,25.9233 24.4049,25.9233 Z M 24.3006,17.1429 L 24.3006,17.1429 L 17.8344,17.1429 L 17.8344,23.5192 C 17.8344,27.0732 20.7546,30.0000 24.3006,30.0000 C 27.8466,30.0000 30.6626,27.0732 30.6626,23.5192 C 30.6626,19.9652 27.8466,17.1429 24.3006,17.1429 Z M 26.0736,10.3484 L 26.0736,10.3484 L 23.2577,10.3484 L 23.2577,7.5261 C 23.2577,5.9582 24.5092,4.7038 26.0736,4.7038 C 27.6380,4.7038 28.8896,5.9582 28.8896,7.5261 C 28.8896,9.0941 27.6380,10.3484 26.0736,10.3484 Z M 26.1779,-0.6272 L 26.1779,-0.6272 C 21.5890,-0.6272 17.8344,2.9268 17.8344,7.5261 L 17.8344,15.8885 L 26.1779,15.8885 C 30.7669,15.8885 34.4172,12.1254 34.4172,7.5261 C 34.4172,2.9268 30.7669,-0.6272 26.1779,-0.6272 Z Z "  fill="#84C342" stroke="none" />
<path d="M 0.0000,0.0000 L 0.0000,0.0000 L 0.0000,30.8362 L 34.8344,30.8362 L 34.8344,0.0000 Z " fill="none" stroke="none" />
<defs><clipPath id="clip-1681692777"><path d="M 0.0000,0.0000 L 0.0000,0.0000 L 0.0000,30.8362 L 34.8344,30.8362 L 34.8344,0.0000 Z" /></clipPath></defs>
</g>
</svg>
